<svg width="154" height="101" viewBox="0 0 154 101" fill="none" xmlns="http://www.w3.org/2000/svg">
<g clip-path="url(#clip0_17_42)">
<path d="M64.8949 47.6218H66.9062L66.9233 45.653C70.6136 45.3718 72.7528 43.4115 72.7614 40.4541C72.7528 37.5479 70.5625 36.0053 67.5284 35.3235L67.0256 35.2041L67.0597 30.9428C68.1932 31.207 68.8835 31.9314 68.9858 33.0053H72.5227C72.4801 30.1843 70.375 28.1644 67.0938 27.8064L67.1108 25.8036H65.0994L65.0824 27.7894C61.75 28.1132 59.3977 30.1246 59.4148 33.0308C59.4062 35.6047 61.2216 37.0791 64.1705 37.7865L64.9886 37.9911L64.946 42.4996C63.5568 42.2354 62.6193 41.3831 62.5256 39.9598H58.9545C59.0398 43.403 61.2983 45.3291 64.9119 45.6445L64.8949 47.6218ZM66.9574 42.4996L66.9915 38.5195C68.3125 38.9371 69.0284 39.474 69.0369 40.4456C69.0284 41.4769 68.2443 42.2439 66.9574 42.4996ZM65.0142 34.6843C63.9489 34.3178 63.1818 33.7638 63.1989 32.7837C63.1989 31.8718 63.8466 31.1644 65.0483 30.9172L65.0142 34.6843Z" fill="white"/>
</g>
<path d="M66.688 64.5519C66.688 65.4799 66.368 66.2533 65.728 66.8719C65.0987 67.4799 64.1333 67.7839 62.832 67.7839H60.688V72.4399H59.232V61.2879H62.832C64.0907 61.2879 65.0453 61.5919 65.696 62.1999C66.3573 62.8079 66.688 63.5919 66.688 64.5519ZM62.832 66.5839C63.6427 66.5839 64.24 66.4079 64.624 66.0559C65.008 65.7039 65.2 65.2026 65.2 64.5519C65.2 63.1759 64.4107 62.4879 62.832 62.4879H60.688V66.5839H62.832ZM76.5976 67.7199C76.5976 67.9973 76.5816 68.2906 76.5496 68.5999H69.5416C69.595 69.4639 69.8883 70.1413 70.4216 70.6319C70.9656 71.1119 71.6216 71.3519 72.3896 71.3519C73.019 71.3519 73.5416 71.2079 73.9576 70.9199C74.3843 70.6213 74.683 70.2266 74.8536 69.7359H76.4216C76.187 70.5786 75.7176 71.2666 75.0136 71.7999C74.3096 72.3226 73.435 72.5839 72.3896 72.5839C71.5576 72.5839 70.811 72.3973 70.1496 72.0239C69.499 71.6506 68.987 71.1226 68.6136 70.4399C68.2403 69.7466 68.0536 68.9466 68.0536 68.0399C68.0536 67.1333 68.235 66.3386 68.5976 65.6559C68.9603 64.9733 69.467 64.4506 70.1176 64.0879C70.779 63.7146 71.5363 63.5279 72.3896 63.5279C73.2216 63.5279 73.9576 63.7093 74.5976 64.0719C75.2376 64.4346 75.7283 64.9359 76.0696 65.5759C76.4216 66.2053 76.5976 66.9199 76.5976 67.7199ZM75.0936 67.4159C75.0936 66.8613 74.971 66.3866 74.7256 65.9919C74.4803 65.5866 74.1443 65.2826 73.7176 65.0799C73.3016 64.8666 72.8376 64.7599 72.3256 64.7599C71.5896 64.7599 70.9603 64.9946 70.4376 65.4639C69.9256 65.9333 69.6323 66.5839 69.5576 67.4159H75.0936ZM80.0755 65.0959C80.3315 64.5946 80.6942 64.2053 81.1635 63.9279C81.6435 63.6506 82.2248 63.5119 82.9075 63.5119V65.0159H82.5235C80.8915 65.0159 80.0755 65.9013 80.0755 67.6719V72.4399H78.6195V63.6719H80.0755V65.0959ZM94.4939 57.3679L90.1099 75.1599H88.6699L93.0379 57.3679H94.4939ZM111.673 63.5119C112.356 63.5119 112.964 63.6559 113.497 63.9439C114.03 64.2213 114.452 64.6426 114.761 65.2079C115.07 65.7733 115.225 66.4613 115.225 67.2719V72.4399H113.785V67.4799C113.785 66.6053 113.566 65.9386 113.129 65.4799C112.702 65.0106 112.121 64.7759 111.385 64.7759C110.628 64.7759 110.025 65.0213 109.577 65.5119C109.129 65.9919 108.905 66.6906 108.905 67.6079V72.4399H107.465V67.4799C107.465 66.6053 107.246 65.9386 106.809 65.4799C106.382 65.0106 105.801 64.7759 105.065 64.7759C104.308 64.7759 103.705 65.0213 103.257 65.5119C102.809 65.9919 102.585 66.6906 102.585 67.6079V72.4399H101.129V63.6719H102.585V64.9359C102.873 64.4773 103.257 64.1253 103.737 63.8799C104.228 63.6346 104.766 63.5119 105.353 63.5119C106.089 63.5119 106.74 63.6773 107.305 64.0079C107.87 64.3386 108.292 64.8239 108.569 65.4639C108.814 64.8453 109.22 64.3653 109.785 64.0239C110.35 63.6826 110.98 63.5119 111.673 63.5119ZM121.537 72.5839C120.716 72.5839 119.969 72.3973 119.297 72.0239C118.636 71.6506 118.113 71.1226 117.729 70.4399C117.356 69.7466 117.169 68.9466 117.169 68.0399C117.169 67.1439 117.361 66.3546 117.745 65.6719C118.14 64.9786 118.673 64.4506 119.345 64.0879C120.017 63.7146 120.769 63.5279 121.601 63.5279C122.433 63.5279 123.185 63.7146 123.857 64.0879C124.529 64.4506 125.057 64.9733 125.441 65.6559C125.836 66.3386 126.033 67.1333 126.033 68.0399C126.033 68.9466 125.831 69.7466 125.425 70.4399C125.031 71.1226 124.492 71.6506 123.809 72.0239C123.127 72.3973 122.369 72.5839 121.537 72.5839ZM121.537 71.3039C122.06 71.3039 122.551 71.1813 123.009 70.9359C123.468 70.6906 123.836 70.3226 124.113 69.8319C124.401 69.3413 124.545 68.7439 124.545 68.0399C124.545 67.3359 124.407 66.7386 124.129 66.2479C123.852 65.7573 123.489 65.3946 123.041 65.1599C122.593 64.9146 122.108 64.7919 121.585 64.7919C121.052 64.7919 120.561 64.9146 120.113 65.1599C119.676 65.3946 119.324 65.7573 119.057 66.2479C118.791 66.7386 118.657 67.3359 118.657 68.0399C118.657 68.7546 118.785 69.3573 119.041 69.8479C119.308 70.3386 119.66 70.7066 120.097 70.9519C120.535 71.1866 121.015 71.3039 121.537 71.3039ZM132.32 63.5119C133.386 63.5119 134.25 63.8373 134.912 64.4879C135.573 65.1279 135.904 66.0559 135.904 67.2719V72.4399H134.464V67.4799C134.464 66.6053 134.245 65.9386 133.808 65.4799C133.37 65.0106 132.773 64.7759 132.016 64.7759C131.248 64.7759 130.634 65.0159 130.176 65.4959C129.728 65.9759 129.504 66.6746 129.504 67.5919V72.4399H128.048V63.6719H129.504V64.9199C129.792 64.4719 130.181 64.1253 130.672 63.8799C131.173 63.6346 131.722 63.5119 132.32 63.5119ZM140.158 64.8719V70.0399C140.158 70.4666 140.249 70.7706 140.43 70.9519C140.611 71.1226 140.926 71.2079 141.374 71.2079H142.446V72.4399H141.134C140.323 72.4399 139.715 72.2533 139.31 71.8799C138.905 71.5066 138.702 70.8933 138.702 70.0399V64.8719H137.566V63.6719H138.702V61.4639H140.158V63.6719H142.446V64.8719H140.158ZM148.662 63.5119C149.323 63.5119 149.921 63.6559 150.454 63.9439C150.987 64.2213 151.403 64.6426 151.702 65.2079C152.011 65.7733 152.166 66.4613 152.166 67.2719V72.4399H150.726V67.4799C150.726 66.6053 150.507 65.9386 150.07 65.4799C149.633 65.0106 149.035 64.7759 148.278 64.7759C147.51 64.7759 146.897 65.0159 146.438 65.4959C145.99 65.9759 145.766 66.6746 145.766 67.5919V72.4399H144.31V60.5999H145.766V64.9199C146.054 64.4719 146.449 64.1253 146.95 63.8799C147.462 63.6346 148.033 63.5119 148.662 63.5119Z" fill="#E0E0E0"/>
<path d="M42.7692 33.2839H19.0572V43.7719C20.0705 42.6573 21.4892 41.7453 23.3132 41.0359C25.1372 40.3266 27.1132 39.9719 29.2412 39.9719C33.0412 39.9719 36.1825 40.8333 38.6652 42.5559C41.1985 44.2786 43.0478 46.5079 44.2132 49.2439C45.3785 51.9799 45.9612 54.9439 45.9612 58.1359C45.9612 64.0639 44.2892 68.7759 40.9452 72.2719C37.6012 75.7173 32.8892 77.4399 26.8092 77.4399C22.7558 77.4399 19.2345 76.7559 16.2452 75.3879C13.2558 73.9693 10.9505 72.0186 9.32916 69.5359C7.70782 67.0533 6.82116 64.1906 6.66916 60.9479H19.3612C19.6652 62.5186 20.3998 63.8359 21.5652 64.8999C22.7305 65.9133 24.3265 66.4199 26.3532 66.4199C28.7345 66.4199 30.5078 65.6599 31.6732 64.1399C32.8385 62.6199 33.4212 60.5933 33.4212 58.0599C33.4212 55.5773 32.8132 53.6773 31.5972 52.3599C30.3812 51.0426 28.6078 50.3839 26.2772 50.3839C24.5545 50.3839 23.1358 50.8146 22.0212 51.6759C20.9065 52.4866 20.1718 53.5759 19.8172 54.9439H7.27716V21.8839H42.7692V33.2839Z" fill="white"/>
<defs>
<clipPath id="clip0_17_42">
<rect width="16" height="29" fill="white" transform="translate(58 21.4399)"/>
</clipPath>
</defs>
</svg>
