<svg width="154" height="101" viewBox="0 0 154 101" fill="none" xmlns="http://www.w3.org/2000/svg">
<g clip-path="url(#clip0_17_8)">
<path d="M64.8949 50.6218H66.9062L66.9233 48.653C70.6136 48.3718 72.7528 46.4115 72.7614 43.4541C72.7528 40.5479 70.5625 39.0053 67.5284 38.3235L67.0256 38.2041L67.0597 33.9428C68.1932 34.207 68.8835 34.9314 68.9858 36.0053H72.5227C72.4801 33.1843 70.375 31.1644 67.0938 30.8064L67.1108 28.8036H65.0994L65.0824 30.7894C61.75 31.1132 59.3977 33.1246 59.4148 36.0308C59.4062 38.6047 61.2216 40.0791 64.1705 40.7865L64.9886 40.9911L64.946 45.4996C63.5568 45.2354 62.6193 44.3831 62.5256 42.9598H58.9545C59.0398 46.403 61.2983 48.3291 64.9119 48.6445L64.8949 50.6218ZM66.9574 45.4996L66.9915 41.5195C68.3125 41.9371 69.0284 42.474 69.0369 43.4456C69.0284 44.4769 68.2443 45.2439 66.9574 45.4996ZM65.0142 37.6843C63.9489 37.3178 63.1818 36.7638 63.1989 35.7837C63.1989 34.8718 63.8466 34.1644 65.0483 33.9172L65.0142 37.6843Z" fill="#02897A"/>
</g>
<path d="M66.688 64.5519C66.688 65.4799 66.368 66.2533 65.728 66.8719C65.0987 67.4799 64.1333 67.7839 62.832 67.7839H60.688V72.4399H59.232V61.2879H62.832C64.0907 61.2879 65.0453 61.5919 65.696 62.1999C66.3573 62.8079 66.688 63.5919 66.688 64.5519ZM62.832 66.5839C63.6427 66.5839 64.24 66.4079 64.624 66.0559C65.008 65.7039 65.2 65.2026 65.2 64.5519C65.2 63.1759 64.4107 62.4879 62.832 62.4879H60.688V66.5839H62.832ZM76.5976 67.7199C76.5976 67.9973 76.5816 68.2906 76.5496 68.5999H69.5416C69.595 69.4639 69.8883 70.1413 70.4216 70.6319C70.9656 71.1119 71.6216 71.3519 72.3896 71.3519C73.019 71.3519 73.5416 71.2079 73.9576 70.9199C74.3843 70.6213 74.683 70.2266 74.8536 69.7359H76.4216C76.187 70.5786 75.7176 71.2666 75.0136 71.7999C74.3096 72.3226 73.435 72.5839 72.3896 72.5839C71.5576 72.5839 70.811 72.3973 70.1496 72.0239C69.499 71.6506 68.987 71.1226 68.6136 70.4399C68.2403 69.7466 68.0536 68.9466 68.0536 68.0399C68.0536 67.1333 68.235 66.3386 68.5976 65.6559C68.9603 64.9733 69.467 64.4506 70.1176 64.0879C70.779 63.7146 71.5363 63.5279 72.3896 63.5279C73.2216 63.5279 73.9576 63.7093 74.5976 64.0719C75.2376 64.4346 75.7283 64.9359 76.0696 65.5759C76.4216 66.2053 76.5976 66.9199 76.5976 67.7199ZM75.0936 67.4159C75.0936 66.8613 74.971 66.3866 74.7256 65.9919C74.4803 65.5866 74.1443 65.2826 73.7176 65.0799C73.3016 64.8666 72.8376 64.7599 72.3256 64.7599C71.5896 64.7599 70.9603 64.9946 70.4376 65.4639C69.9256 65.9333 69.6323 66.5839 69.5576 67.4159H75.0936ZM80.0755 65.0959C80.3315 64.5946 80.6942 64.2053 81.1635 63.9279C81.6435 63.6506 82.2248 63.5119 82.9075 63.5119V65.0159H82.5235C80.8915 65.0159 80.0755 65.9013 80.0755 67.6719V72.4399H78.6195V63.6719H80.0755V65.0959ZM94.4939 57.3679L90.1099 75.1599H88.6699L93.0379 57.3679H94.4939ZM111.673 63.5119C112.356 63.5119 112.964 63.6559 113.497 63.9439C114.03 64.2213 114.452 64.6426 114.761 65.2079C115.07 65.7733 115.225 66.4613 115.225 67.2719V72.4399H113.785V67.4799C113.785 66.6053 113.566 65.9386 113.129 65.4799C112.702 65.0106 112.121 64.7759 111.385 64.7759C110.628 64.7759 110.025 65.0213 109.577 65.5119C109.129 65.9919 108.905 66.6906 108.905 67.6079V72.4399H107.465V67.4799C107.465 66.6053 107.246 65.9386 106.809 65.4799C106.382 65.0106 105.801 64.7759 105.065 64.7759C104.308 64.7759 103.705 65.0213 103.257 65.5119C102.809 65.9919 102.585 66.6906 102.585 67.6079V72.4399H101.129V63.6719H102.585V64.9359C102.873 64.4773 103.257 64.1253 103.737 63.8799C104.228 63.6346 104.766 63.5119 105.353 63.5119C106.089 63.5119 106.74 63.6773 107.305 64.0079C107.87 64.3386 108.292 64.8239 108.569 65.4639C108.814 64.8453 109.22 64.3653 109.785 64.0239C110.35 63.6826 110.98 63.5119 111.673 63.5119ZM121.537 72.5839C120.716 72.5839 119.969 72.3973 119.297 72.0239C118.636 71.6506 118.113 71.1226 117.729 70.4399C117.356 69.7466 117.169 68.9466 117.169 68.0399C117.169 67.1439 117.361 66.3546 117.745 65.6719C118.14 64.9786 118.673 64.4506 119.345 64.0879C120.017 63.7146 120.769 63.5279 121.601 63.5279C122.433 63.5279 123.185 63.7146 123.857 64.0879C124.529 64.4506 125.057 64.9733 125.441 65.6559C125.836 66.3386 126.033 67.1333 126.033 68.0399C126.033 68.9466 125.831 69.7466 125.425 70.4399C125.031 71.1226 124.492 71.6506 123.809 72.0239C123.127 72.3973 122.369 72.5839 121.537 72.5839ZM121.537 71.3039C122.06 71.3039 122.551 71.1813 123.009 70.9359C123.468 70.6906 123.836 70.3226 124.113 69.8319C124.401 69.3413 124.545 68.7439 124.545 68.0399C124.545 67.3359 124.407 66.7386 124.129 66.2479C123.852 65.7573 123.489 65.3946 123.041 65.1599C122.593 64.9146 122.108 64.7919 121.585 64.7919C121.052 64.7919 120.561 64.9146 120.113 65.1599C119.676 65.3946 119.324 65.7573 119.057 66.2479C118.791 66.7386 118.657 67.3359 118.657 68.0399C118.657 68.7546 118.785 69.3573 119.041 69.8479C119.308 70.3386 119.66 70.7066 120.097 70.9519C120.535 71.1866 121.015 71.3039 121.537 71.3039ZM132.32 63.5119C133.386 63.5119 134.25 63.8373 134.912 64.4879C135.573 65.1279 135.904 66.0559 135.904 67.2719V72.4399H134.464V67.4799C134.464 66.6053 134.245 65.9386 133.808 65.4799C133.37 65.0106 132.773 64.7759 132.016 64.7759C131.248 64.7759 130.634 65.0159 130.176 65.4959C129.728 65.9759 129.504 66.6746 129.504 67.5919V72.4399H128.048V63.6719H129.504V64.9199C129.792 64.4719 130.181 64.1253 130.672 63.8799C131.173 63.6346 131.722 63.5119 132.32 63.5119ZM140.158 64.8719V70.0399C140.158 70.4666 140.249 70.7706 140.43 70.9519C140.611 71.1226 140.926 71.2079 141.374 71.2079H142.446V72.4399H141.134C140.323 72.4399 139.715 72.2533 139.31 71.8799C138.905 71.5066 138.702 70.8933 138.702 70.0399V64.8719H137.566V63.6719H138.702V61.4639H140.158V63.6719H142.446V64.8719H140.158ZM148.662 63.5119C149.323 63.5119 149.921 63.6559 150.454 63.9439C150.987 64.2213 151.403 64.6426 151.702 65.2079C152.011 65.7733 152.166 66.4613 152.166 67.2719V72.4399H150.726V67.4799C150.726 66.6053 150.507 65.9386 150.07 65.4799C149.633 65.0106 149.035 64.7759 148.278 64.7759C147.51 64.7759 146.897 65.0159 146.438 65.4959C145.99 65.9759 145.766 66.6746 145.766 67.5919V72.4399H144.31V60.5999H145.766V64.9199C146.054 64.4719 146.449 64.1253 146.95 63.8799C147.462 63.6346 148.033 63.5119 148.662 63.5119Z" fill="#AFAFAF"/>
<path d="M3.63094 48.9399C3.63094 40.2253 5.30294 33.3599 8.64694 28.3439C12.0416 23.3279 17.4883 20.8199 24.9869 20.8199C32.4856 20.8199 37.9069 23.3279 41.2509 28.3439C44.6456 33.3599 46.3429 40.2253 46.3429 48.9399C46.3429 57.7559 44.6456 64.6719 41.2509 69.6879C37.9069 74.7039 32.4856 77.2119 24.9869 77.2119C17.4883 77.2119 12.0416 74.7039 8.64694 69.6879C5.30294 64.6719 3.63094 57.7559 3.63094 48.9399ZM33.5749 48.9399C33.5749 43.8226 33.0176 39.8959 31.9029 37.1599C30.7883 34.3733 28.4829 32.9799 24.9869 32.9799C21.4909 32.9799 19.1856 34.3733 18.0709 37.1599C16.9563 39.8959 16.3989 43.8226 16.3989 48.9399C16.3989 52.3853 16.6016 55.2479 17.0069 57.5279C17.4123 59.7573 18.2229 61.5813 19.4389 62.9999C20.7056 64.3679 22.5549 65.0519 24.9869 65.0519C27.4189 65.0519 29.2429 64.3679 30.4589 62.9999C31.7256 61.5813 32.5616 59.7573 32.9669 57.5279C33.3723 55.2479 33.5749 52.3853 33.5749 48.9399Z" fill="#02897A"/>
<defs>
<clipPath id="clip0_17_8">
<rect width="16" height="29" fill="white" transform="translate(58 24.4399)"/>
</clipPath>
</defs>
</svg>
