<svg width="183" height="101" viewBox="0 0 183 101" fill="none" xmlns="http://www.w3.org/2000/svg">
<g clip-path="url(#clip0_17_24)">
<path d="M93.8949 50.6213H95.9062L95.9233 48.6525C99.6136 48.3713 101.753 46.411 101.761 43.4537C101.753 40.5474 99.5625 39.0048 96.5284 38.323L96.0256 38.2037L96.0597 33.9423C97.1932 34.2065 97.8835 34.9309 97.9858 36.0048H101.523C101.48 33.1838 99.375 31.1639 96.0938 30.8059L96.1108 28.8031H94.0994L94.0824 30.7889C90.75 31.1127 88.3977 33.1241 88.4148 36.0304C88.4062 38.6042 90.2216 40.0787 93.1705 40.786L93.9886 40.9906L93.946 45.4991C92.5568 45.2349 91.6193 44.3826 91.5256 42.9593H87.9545C88.0398 46.4025 90.2983 48.3287 93.9119 48.644L93.8949 50.6213ZM95.9574 45.4991L95.9915 41.519C97.3125 41.9366 98.0284 42.4735 98.0369 43.4451C98.0284 44.4764 97.2443 45.2434 95.9574 45.4991ZM94.0142 37.6838C92.9489 37.3173 92.1818 36.7633 92.1989 35.7832C92.1989 34.8713 92.8466 34.1639 94.0483 33.9167L94.0142 37.6838Z" fill="#02897A"/>
</g>
<path d="M95.688 64.5515C95.688 65.4795 95.368 66.2528 94.728 66.8715C94.0987 67.4795 93.1333 67.7835 91.832 67.7835H89.688V72.4395H88.232V61.2875H91.832C93.0907 61.2875 94.0453 61.5915 94.696 62.1995C95.3573 62.8075 95.688 63.5915 95.688 64.5515ZM91.832 66.5835C92.6427 66.5835 93.24 66.4075 93.624 66.0555C94.008 65.7035 94.2 65.2021 94.2 64.5515C94.2 63.1755 93.4107 62.4875 91.832 62.4875H89.688V66.5835H91.832ZM105.598 67.7195C105.598 67.9968 105.582 68.2901 105.55 68.5995H98.5416C98.595 69.4635 98.8883 70.1408 99.4216 70.6315C99.9656 71.1115 100.622 71.3515 101.39 71.3515C102.019 71.3515 102.542 71.2075 102.958 70.9195C103.384 70.6208 103.683 70.2261 103.854 69.7355H105.422C105.187 70.5781 104.718 71.2661 104.014 71.7995C103.31 72.3221 102.435 72.5835 101.39 72.5835C100.558 72.5835 99.811 72.3968 99.1496 72.0235C98.499 71.6501 97.987 71.1221 97.6136 70.4395C97.2403 69.7461 97.0536 68.9461 97.0536 68.0395C97.0536 67.1328 97.235 66.3381 97.5976 65.6555C97.9603 64.9728 98.467 64.4501 99.1176 64.0875C99.779 63.7141 100.536 63.5275 101.39 63.5275C102.222 63.5275 102.958 63.7088 103.598 64.0715C104.238 64.4341 104.728 64.9355 105.07 65.5755C105.422 66.2048 105.598 66.9195 105.598 67.7195ZM104.094 67.4155C104.094 66.8608 103.971 66.3861 103.726 65.9915C103.48 65.5861 103.144 65.2821 102.718 65.0795C102.302 64.8661 101.838 64.7595 101.326 64.7595C100.59 64.7595 99.9603 64.9941 99.4376 65.4635C98.9256 65.9328 98.6323 66.5835 98.5576 67.4155H104.094ZM109.076 65.0955C109.332 64.5941 109.694 64.2048 110.164 63.9275C110.644 63.6501 111.225 63.5115 111.908 63.5115V65.0155H111.524C109.892 65.0155 109.076 65.9008 109.076 67.6715V72.4395H107.62V63.6715H109.076V65.0955ZM123.494 57.3675L119.11 75.1595H117.67L122.038 57.3675H123.494ZM140.673 63.5115C141.356 63.5115 141.964 63.6555 142.497 63.9435C143.03 64.2208 143.452 64.6421 143.761 65.2075C144.07 65.7728 144.225 66.4608 144.225 67.2715V72.4395H142.785V67.4795C142.785 66.6048 142.566 65.9381 142.129 65.4795C141.702 65.0101 141.121 64.7755 140.385 64.7755C139.628 64.7755 139.025 65.0208 138.577 65.5115C138.129 65.9915 137.905 66.6901 137.905 67.6075V72.4395H136.465V67.4795C136.465 66.6048 136.246 65.9381 135.809 65.4795C135.382 65.0101 134.801 64.7755 134.065 64.7755C133.308 64.7755 132.705 65.0208 132.257 65.5115C131.809 65.9915 131.585 66.6901 131.585 67.6075V72.4395H130.129V63.6715H131.585V64.9355C131.873 64.4768 132.257 64.1248 132.737 63.8795C133.228 63.6341 133.766 63.5115 134.353 63.5115C135.089 63.5115 135.74 63.6768 136.305 64.0075C136.87 64.3381 137.292 64.8235 137.569 65.4635C137.814 64.8448 138.22 64.3648 138.785 64.0235C139.35 63.6821 139.98 63.5115 140.673 63.5115ZM150.537 72.5835C149.716 72.5835 148.969 72.3968 148.297 72.0235C147.636 71.6501 147.113 71.1221 146.729 70.4395C146.356 69.7461 146.169 68.9461 146.169 68.0395C146.169 67.1435 146.361 66.3541 146.745 65.6715C147.14 64.9781 147.673 64.4501 148.345 64.0875C149.017 63.7141 149.769 63.5275 150.601 63.5275C151.433 63.5275 152.185 63.7141 152.857 64.0875C153.529 64.4501 154.057 64.9728 154.441 65.6555C154.836 66.3381 155.033 67.1328 155.033 68.0395C155.033 68.9461 154.831 69.7461 154.425 70.4395C154.031 71.1221 153.492 71.6501 152.809 72.0235C152.127 72.3968 151.369 72.5835 150.537 72.5835ZM150.537 71.3035C151.06 71.3035 151.551 71.1808 152.009 70.9355C152.468 70.6901 152.836 70.3221 153.113 69.8315C153.401 69.3408 153.545 68.7435 153.545 68.0395C153.545 67.3355 153.407 66.7381 153.129 66.2475C152.852 65.7568 152.489 65.3941 152.041 65.1595C151.593 64.9141 151.108 64.7915 150.585 64.7915C150.052 64.7915 149.561 64.9141 149.113 65.1595C148.676 65.3941 148.324 65.7568 148.057 66.2475C147.791 66.7381 147.657 67.3355 147.657 68.0395C147.657 68.7541 147.785 69.3568 148.041 69.8475C148.308 70.3381 148.66 70.7061 149.097 70.9515C149.535 71.1861 150.015 71.3035 150.537 71.3035ZM161.32 63.5115C162.386 63.5115 163.25 63.8368 163.912 64.4875C164.573 65.1275 164.904 66.0555 164.904 67.2715V72.4395H163.464V67.4795C163.464 66.6048 163.245 65.9381 162.808 65.4795C162.37 65.0101 161.773 64.7755 161.016 64.7755C160.248 64.7755 159.634 65.0155 159.176 65.4955C158.728 65.9755 158.504 66.6741 158.504 67.5915V72.4395H157.048V63.6715H158.504V64.9195C158.792 64.4715 159.181 64.1248 159.672 63.8795C160.173 63.6341 160.722 63.5115 161.32 63.5115ZM169.158 64.8715V70.0395C169.158 70.4661 169.249 70.7701 169.43 70.9515C169.611 71.1221 169.926 71.2075 170.374 71.2075H171.446V72.4395H170.134C169.323 72.4395 168.715 72.2528 168.31 71.8795C167.905 71.5061 167.702 70.8928 167.702 70.0395V64.8715H166.566V63.6715H167.702V61.4635H169.158V63.6715H171.446V64.8715H169.158ZM177.662 63.5115C178.323 63.5115 178.921 63.6555 179.454 63.9435C179.987 64.2208 180.403 64.6421 180.702 65.2075C181.011 65.7728 181.166 66.4608 181.166 67.2715V72.4395H179.726V67.4795C179.726 66.6048 179.507 65.9381 179.07 65.4795C178.633 65.0101 178.035 64.7755 177.278 64.7755C176.51 64.7755 175.897 65.0155 175.438 65.4955C174.99 65.9755 174.766 66.6741 174.766 67.5915V72.4395H173.31V60.5995H174.766V64.9195C175.054 64.4715 175.449 64.1248 175.95 63.8795C176.462 63.6341 177.033 63.5115 177.662 63.5115Z" fill="#AFAFAF"/>
<path d="M2.37583 34.0435V21.9595H23.4278V77.4395H9.89983V34.0435H2.37583ZM32.518 48.9395C32.518 40.2248 34.19 33.3594 37.534 28.3435C40.9287 23.3274 46.3754 20.8194 53.874 20.8194C61.3727 20.8194 66.7941 23.3274 70.1381 28.3435C73.5327 33.3594 75.2301 40.2248 75.2301 48.9395C75.2301 57.7555 73.5327 64.6715 70.1381 69.6875C66.7941 74.7035 61.3727 77.2115 53.874 77.2115C46.3754 77.2115 40.9287 74.7035 37.534 69.6875C34.19 64.6715 32.518 57.7555 32.518 48.9395ZM62.462 48.9395C62.462 43.8221 61.9047 39.8955 60.7901 37.1595C59.6754 34.3728 57.37 32.9795 53.874 32.9795C50.378 32.9795 48.0727 34.3728 46.9581 37.1595C45.8434 39.8955 45.2861 43.8221 45.2861 48.9395C45.2861 52.3848 45.4887 55.2475 45.8941 57.5275C46.2994 59.7568 47.1101 61.5808 48.3261 62.9995C49.5927 64.3675 51.4421 65.0515 53.874 65.0515C56.306 65.0515 58.1301 64.3675 59.3461 62.9995C60.6127 61.5808 61.4487 59.7568 61.8541 57.5275C62.2594 55.2475 62.462 52.3848 62.462 48.9395Z" fill="#02897A"/>
<defs>
<clipPath id="clip0_17_24">
<rect width="16" height="29" fill="white" transform="translate(87 24.4395)"/>
</clipPath>
</defs>
</svg>
